<?xml version="1.0" encoding="UTF-8"?>
<svg xmlns="http://www.w3.org/2000/svg" xmlns:xlink="http://www.w3.org/1999/xlink" width="224.87999pt" height="225pt" viewBox="0 0 224.87999 225" version="1.2">
<defs>
<clipPath id="clip1">
  <path d="M 0 0.0585938 L 224.761719 0.0585938 L 224.761719 224.9375 L 0 224.9375 Z M 0 0.0585938 "/>
</clipPath>
<clipPath id="clip2">
  <path d="M 0 18.894531 L 224.761719 18.894531 L 224.761719 206.292969 L 0 206.292969 Z M 0 18.894531 "/>
</clipPath>
</defs>
<g id="surface1">
<g clip-path="url(#clip1)" clip-rule="nonzero">
<path style=" stroke:none;fill-rule:nonzero;fill:rgb(100%,100%,100%);fill-opacity:1;" d="M 0 0.0585938 L 224.878906 0.0585938 L 224.878906 922.066406 L 0 922.066406 Z M 0 0.0585938 "/>
<path style=" stroke:none;fill-rule:nonzero;fill:rgb(100%,100%,100%);fill-opacity:1;" d="M 0 0.0585938 L 224.878906 0.0585938 L 224.878906 224.941406 L 0 224.941406 Z M 0 0.0585938 "/>
<path style=" stroke:none;fill-rule:nonzero;fill:rgb(100%,100%,100%);fill-opacity:1;" d="M 0 0.0585938 L 224.878906 0.0585938 L 224.878906 224.941406 L 0 224.941406 Z M 0 0.0585938 "/>
</g>
<g clip-path="url(#clip2)" clip-rule="nonzero">
<path style=" stroke:none;fill-rule:nonzero;fill:rgb(100%,100%,100%);fill-opacity:1;" d="M 224.765625 140.695312 C 224.765625 112.050781 197.863281 88.390625 163.25 84.953125 L 160.433594 68.949219 C 149.976562 39 118.457031 18.894531 82.019531 18.894531 C 36.84375 18.894531 0.113281 50.414062 0.113281 89.167969 C 0.113281 109.96875 10.585938 129.261719 29 142.660156 L 19.328125 162.03125 C 18.414062 163.875 18.804688 166.113281 20.304688 167.53125 C 21.203125 168.375 22.34375 168.8125 23.515625 168.8125 C 24.308594 168.8125 25.113281 168.617188 25.816406 168.195312 L 50.585938 154.027344 C 57.148438 156.359375 64.148438 157.964844 71.710938 158.804688 L 88.449219 159.414062 C 98.109375 181.230469 124.054688 196.914062 154.5625 196.914062 C 161.808594 196.914062 169.023438 195.996094 176.0625 194.179688 L 199.269531 205.796875 C 199.953125 206.132812 200.65625 206.292969 201.367188 206.292969 C 202.515625 206.292969 203.648438 205.871094 204.539062 205.058594 C 205.960938 203.734375 206.429688 201.664062 205.710938 199.867188 L 199.351562 183.945312 C 215.339844 173.320312 224.765625 157.402344 224.765625 140.695312 Z M 72.433594 149.472656 C 65.207031 148.648438 58.289062 146.972656 51.867188 144.5 C 50.566406 144.011719 49.078125 144.113281 47.859375 144.808594 L 34.617188 152.386719 L 39.191406 143.214844 C 40.25 141.085938 39.558594 138.5 37.5625 137.199219 C 19.714844 125.523438 9.472656 108.019531 9.472656 89.167969 C 9.472656 55.585938 42.019531 28.265625 82.019531 28.265625 C 113.984375 28.265625 142.601562 46.273438 151.410156 71.289062 L 153.691406 84.511719 C 115.378906 84.894531 84.359375 109.933594 84.359375 140.695312 C 84.359375 143.851562 84.761719 146.925781 85.386719 149.941406 Z M 191.199219 178.003906 C 189.195312 179.167969 188.34375 181.632812 189.214844 183.785156 L 192.453125 191.902344 L 178.667969 185.003906 C 178 184.675781 177.289062 184.507812 176.570312 184.507812 C 176.148438 184.507812 175.71875 184.574219 175.316406 184.6875 C 168.546875 186.589844 161.574219 187.554688 154.582031 187.554688 C 121.03125 187.554688 93.738281 166.535156 93.738281 140.703125 C 93.738281 114.871094 121.03125 93.855469 154.582031 93.855469 C 188.128906 93.855469 215.425781 114.871094 215.425781 140.703125 C 215.425781 155.414062 206.597656 169.019531 191.199219 178.003906 Z M 191.199219 178.003906 "/>
</g>
<path style=" stroke:none;fill-rule:nonzero;fill:rgb(76.469421%,16.468811%,15.689087%);fill-opacity:1;" d="M 21.714844 118.6875 C 21.714844 118.6875 -0.0195312 91.890625 24.722656 82.222656 C 49.46875 72.554688 126.605469 62.066406 142.355469 62.777344 C 158.101562 63.492188 177.199219 65.796875 185.007812 56.386719 C 192.816406 46.972656 204.273438 49 206.726562 50.019531 C 209.175781 51.035156 212.785156 52.332031 215.824219 48.53125 C 218.863281 44.734375 215.945312 55.1875 210.746094 55.933594 C 205.550781 56.679688 193.777344 58.253906 190.691406 63.632812 C 187.609375 69.011719 174.214844 79.488281 159.84375 79.257812 C 145.46875 79.023438 129.347656 85.328125 128.527344 86.222656 C 128.183594 86.59375 132.25 85.824219 137.691406 85.054688 C 145.226562 83.988281 155.394531 82.921875 160.125 84.898438 C 168.265625 88.296875 153.699219 85.488281 139.421875 91.25 C 139.421875 91.25 110.898438 98.902344 91.539062 112.90625 C 72.183594 126.910156 38.476562 155.59375 21.714844 118.6875 "/>
<path style=" stroke:none;fill-rule:nonzero;fill:rgb(87.449646%,28.62854%,16.079712%);fill-opacity:1;" d="M 24.722656 82.222656 C 41.953125 75.492188 84.570312 68.363281 114.191406 64.894531 C 125.25 64.738281 135.984375 65.160156 143.976562 66.710938 C 153.582031 68.574219 180.035156 68.734375 183.953125 62.410156 C 187.867188 56.089844 197.617188 53.011719 199.585938 55.308594 C 200.1875 56.011719 200.003906 55.910156 199.152344 55.8125 C 197.210938 55.589844 191.816406 55.363281 184.363281 64.570312 C 173.992188 77.371094 168.195312 77.140625 153.503906 76.90625 C 148.835938 76.832031 143.265625 76.757812 136.367188 77.105469 C 136.367188 77.105469 113.457031 81.140625 110.980469 94.128906 C 110.980469 94.128906 131.027344 87.957031 136.082031 88.359375 C 136.082031 88.359375 103.273438 97.691406 85.792969 117.132812 C 66.058594 131.679688 36.917969 152.164062 21.714844 118.6875 C 21.714844 118.6875 -0.0195312 91.890625 24.722656 82.222656 "/>
<path style=" stroke:none;fill-rule:nonzero;fill:rgb(89.408875%,61.569214%,16.468811%);fill-opacity:1;" d="M 23.429688 84.914062 C 26.605469 82.894531 29.480469 81.195312 32.097656 79.75 C 45.1875 75.875 65.066406 72.03125 84.527344 68.976562 C 97.414062 68.015625 112.398438 67.53125 121.5625 69.347656 C 140.246094 73.050781 159.382812 73.058594 160.753906 72.457031 C 160.753906 72.457031 163.746094 74.308594 155.054688 74.582031 C 146.363281 74.855469 120.617188 73.933594 110.503906 80.59375 C 100.390625 87.25 84.816406 100.78125 81.746094 106.320312 C 81.746094 106.320312 94.804688 98.65625 98.488281 98.066406 C 98.488281 98.066406 42.113281 162.453125 23.546875 119.496094 C 23.546875 119.496094 4.464844 96.945312 23.429688 84.914062 "/>
<path style=" stroke:none;fill-rule:nonzero;fill:rgb(89.408875%,67.83905%,31.759644%);fill-opacity:1;" d="M 25.824219 83.414062 C 28.070312 82.039062 30.15625 80.820312 32.097656 79.75 C 39.425781 77.578125 48.882812 75.421875 59.207031 73.402344 C 71.371094 73.183594 95.261719 73.019531 102.273438 74.898438 C 101.199219 74.765625 98.640625 75.105469 93.769531 79.105469 C 86.921875 84.730469 76.75 100.203125 73.507812 106.558594 L 79.90625 101.1875 C 79.90625 101.1875 56.445312 143.785156 34.542969 130.375 C 34.542969 130.375 3.886719 101.019531 25.824219 83.414062 "/>
<path style=" stroke:none;fill-rule:nonzero;fill:rgb(77.648926%,77.648926%,77.648926%);fill-opacity:1;" d="M 29.628906 85.148438 C 29.628906 85.148438 15.734375 86.980469 17.257812 98.039062 C 18.78125 109.101562 30.3125 137.835938 47.023438 133.027344 C 63.730469 128.21875 79.15625 102.578125 63.722656 90.195312 C 63.722656 90.195312 55.023438 82.65625 29.628906 85.148438 "/>
<path style=" stroke:none;fill-rule:nonzero;fill:rgb(86.268616%,86.268616%,87.838745%);fill-opacity:1;" d="M 21.394531 94.078125 C 21.011719 101.113281 23.199219 115.8125 29.222656 125.320312 C 22.457031 117.007812 18.148438 104.503906 17.257812 98.039062 C 16.242188 90.65625 22.097656 87.382812 26.101562 86.027344 C 23.632812 87.519531 21.617188 89.992188 21.394531 94.078125 "/>
<path style=" stroke:none;fill-rule:nonzero;fill:rgb(57.649231%,61.959839%,65.489197%);fill-opacity:1;" d="M 44.761719 88.375 C 44.761719 88.375 27.074219 86.730469 26.214844 88.878906 C 25.355469 91.027344 30.75 98.621094 36.195312 97.9375 C 41.640625 97.257812 52.382812 88.878906 44.761719 88.375 "/>
<path style=" stroke:none;fill-rule:nonzero;fill:rgb(57.649231%,61.959839%,65.489197%);fill-opacity:1;" d="M 30.929688 99.226562 C 30.929688 99.226562 40.007812 107.96875 37.589844 110.484375 C 35.167969 113.003906 29.238281 112.097656 28.867188 109.757812 C 28.503906 107.410156 27 94.917969 30.929688 99.226562 "/>
<path style=" stroke:none;fill-rule:nonzero;fill:rgb(57.649231%,61.959839%,65.489197%);fill-opacity:1;" d="M 52.386719 110.871094 C 52.386719 110.871094 38.925781 112.109375 38.703125 115.203125 C 38.480469 118.292969 46.910156 122.613281 51.847656 119.863281 C 56.777344 117.117188 56.488281 110.339844 52.386719 110.871094 "/>
<path style=" stroke:none;fill-rule:nonzero;fill:rgb(57.649231%,61.959839%,65.489197%);fill-opacity:1;" d="M 47.082031 99.730469 C 47.082031 99.730469 54.472656 91.453125 57.675781 91.648438 C 60.878906 91.847656 63.898438 101.519531 62.160156 103.421875 C 60.425781 105.320312 41.609375 105.050781 47.082031 99.730469 "/>
<path style=" stroke:none;fill-rule:nonzero;fill:rgb(57.649231%,61.959839%,65.489197%);fill-opacity:1;" d="M 21.492188 93.058594 C 21.492188 93.058594 25.800781 96.902344 24.632812 98.632812 C 23.460938 100.367188 21.058594 100.085938 20.695312 98.472656 C 20.328125 96.859375 19.898438 91.421875 21.492188 93.058594 "/>
<path style=" stroke:none;fill-rule:nonzero;fill:rgb(57.649231%,61.959839%,65.489197%);fill-opacity:1;" d="M 45.417969 107.386719 C 45.417969 107.386719 43.820312 101.765625 42.183594 101.828125 C 40.550781 101.886719 39.441406 101.832031 39.183594 102.539062 C 38.929688 103.242188 45.515625 111.707031 45.417969 107.386719 "/>
<path style=" stroke:none;fill-rule:nonzero;fill:rgb(69.40918%,70.979309%,72.549438%);fill-opacity:1;" d="M 23.800781 108.914062 C 24.703125 108.914062 25.757812 108.160156 26.414062 106.957031 C 27.242188 105.433594 27.117188 103.761719 26.132812 103.222656 C 25.925781 103.109375 25.695312 103.054688 25.453125 103.054688 C 24.554688 103.054688 23.5 103.808594 22.847656 105.011719 C 22.632812 105.40625 22.484375 105.804688 22.394531 106.195312 C 22.535156 106.972656 22.6875 107.761719 22.863281 108.554688 C 22.941406 108.628906 23.027344 108.695312 23.125 108.746094 C 23.335938 108.859375 23.5625 108.914062 23.800781 108.914062 "/>
<path style=" stroke:none;fill-rule:nonzero;fill:rgb(74.508667%,75.689697%,78.039551%);fill-opacity:1;" d="M 22.863281 108.554688 C 22.6875 107.761719 22.535156 106.972656 22.394531 106.195312 C 22.167969 107.171875 22.332031 108.074219 22.863281 108.554688 "/>
<path style=" stroke:none;fill-rule:nonzero;fill:rgb(69.40918%,70.979309%,72.549438%);fill-opacity:1;" d="M 46.976562 95.648438 C 47.453125 95.648438 48.019531 95.4375 48.519531 95.03125 C 48.628906 94.941406 48.734375 94.84375 48.828125 94.742188 C 48.464844 93.996094 48.007812 93.28125 47.476562 92.609375 C 47.269531 92.707031 47.0625 92.835938 46.867188 92.996094 C 46 93.703125 45.660156 94.730469 46.117188 95.289062 C 46.3125 95.53125 46.617188 95.648438 46.976562 95.648438 "/>
<path style=" stroke:none;fill-rule:nonzero;fill:rgb(57.649231%,61.959839%,65.879822%);fill-opacity:1;" d="M 43.535156 89.429688 C 43.699219 89.429688 43.871094 89.40625 44.046875 89.355469 C 43.542969 88.980469 43.019531 88.625 42.488281 88.285156 C 42.449219 88.585938 42.507812 88.863281 42.679688 89.074219 C 42.875 89.3125 43.179688 89.429688 43.535156 89.429688 "/>
<path style=" stroke:none;fill-rule:nonzero;fill:rgb(69.40918%,70.979309%,72.549438%);fill-opacity:1;" d="M 23.632812 91.113281 C 24.113281 91.113281 24.679688 90.902344 25.179688 90.496094 C 26.046875 89.792969 26.382812 88.765625 25.929688 88.199219 C 25.734375 87.960938 25.429688 87.84375 25.070312 87.84375 C 24.59375 87.84375 24.027344 88.054688 23.527344 88.460938 C 22.65625 89.167969 22.324219 90.195312 22.777344 90.757812 C 22.972656 90.996094 23.28125 91.113281 23.632812 91.113281 "/>
<path style=" stroke:none;fill-rule:nonzero;fill:rgb(69.40918%,70.979309%,72.549438%);fill-opacity:1;" d="M 23.757812 95.066406 C 24.234375 95.066406 24.800781 94.855469 25.300781 94.449219 C 26.171875 93.742188 26.507812 92.714844 26.050781 92.15625 C 25.855469 91.914062 25.550781 91.796875 25.195312 91.796875 C 24.714844 91.796875 24.148438 92.007812 23.648438 92.414062 C 22.972656 92.960938 22.621094 93.707031 22.710938 94.277344 C 22.917969 94.5 23.132812 94.746094 23.347656 95.003906 C 23.472656 95.046875 23.609375 95.066406 23.757812 95.066406 "/>
<path style=" stroke:none;fill-rule:nonzero;fill:rgb(57.649231%,61.959839%,65.879822%);fill-opacity:1;" d="M 23.347656 95.003906 C 23.132812 94.746094 22.917969 94.5 22.710938 94.277344 C 22.738281 94.4375 22.800781 94.585938 22.902344 94.710938 C 23.015625 94.851562 23.167969 94.949219 23.347656 95.003906 "/>
<path style=" stroke:none;fill-rule:nonzero;fill:rgb(69.40918%,70.979309%,72.549438%);fill-opacity:1;" d="M 28.433594 97.296875 C 29.222656 97.296875 30.144531 96.976562 30.988281 96.363281 C 29.671875 95.4375 28.519531 94.226562 27.667969 93.027344 C 26.53125 94.246094 26.167969 95.765625 26.882812 96.648438 C 27.234375 97.082031 27.789062 97.296875 28.433594 97.296875 "/>
<path style=" stroke:none;fill-rule:nonzero;fill:rgb(57.649231%,61.959839%,65.879822%);fill-opacity:1;" d="M 30.988281 96.363281 C 31.066406 96.304688 31.144531 96.242188 31.222656 96.179688 C 32.800781 94.902344 33.40625 93.042969 32.582031 92.027344 C 32.230469 91.59375 31.675781 91.382812 31.035156 91.382812 C 30.167969 91.382812 29.140625 91.761719 28.242188 92.496094 C 28.03125 92.664062 27.84375 92.839844 27.667969 93.027344 C 28.519531 94.226562 29.671875 95.4375 30.988281 96.363281 "/>
<path style=" stroke:none;fill-rule:nonzero;fill:rgb(76.858521%,65.489197%,45.878601%);fill-opacity:1;" d="M 29.261719 85.207031 C 29.410156 85.183594 29.511719 85.164062 29.574219 85.15625 C 29.511719 85.164062 29.410156 85.183594 29.265625 85.207031 C 29.265625 85.207031 29.265625 85.207031 29.261719 85.207031 "/>
<path style=" stroke:none;fill-rule:nonzero;fill:rgb(69.40918%,70.979309%,72.549438%);fill-opacity:1;" d="M 28.171875 88.046875 C 29.417969 87.847656 31.132812 87.773438 32.988281 87.773438 C 34.492188 87.773438 36.089844 87.824219 37.605469 87.890625 C 38.035156 87.324219 38.371094 86.738281 38.605469 86.152344 C 37.464844 85.609375 36.339844 85.140625 35.300781 84.738281 C 33.507812 84.820312 31.621094 84.953125 29.628906 85.148438 C 29.625 85.148438 29.609375 85.148438 29.574219 85.15625 C 29.511719 85.164062 29.410156 85.183594 29.261719 85.207031 C 28.625 86.152344 28.25 87.140625 28.171875 88.046875 "/>
<path style=" stroke:none;fill-rule:nonzero;fill:rgb(57.649231%,61.959839%,65.879822%);fill-opacity:1;" d="M 31.382812 91.332031 C 32.839844 91.332031 34.5625 90.6875 36.078125 89.457031 C 36.671875 88.976562 37.183594 88.445312 37.605469 87.890625 C 36.089844 87.824219 34.492188 87.773438 32.988281 87.773438 C 31.132812 87.773438 29.417969 87.847656 28.171875 88.046875 C 28.105469 88.886719 28.296875 89.652344 28.78125 90.246094 C 29.371094 90.976562 30.300781 91.332031 31.382812 91.332031 "/>
<path style=" stroke:none;fill-rule:nonzero;fill:rgb(75.689697%,53.729248%,18.818665%);fill-opacity:1;" d="M 40.734375 133.304688 L 40.734375 133.304688 M 40.71875 133.304688 C 40.71875 133.304688 40.71875 133.300781 40.71875 133.300781 C 40.71875 133.300781 40.71875 133.304688 40.71875 133.304688 M 40.675781 133.292969 C 40.671875 133.292969 40.671875 133.292969 40.667969 133.289062 C 40.671875 133.292969 40.671875 133.292969 40.675781 133.292969 M 40.65625 133.289062 C 40.65625 133.289062 40.652344 133.289062 40.648438 133.289062 C 40.652344 133.289062 40.65625 133.289062 40.65625 133.289062 M 40.640625 133.285156 C 40.636719 133.285156 40.632812 133.285156 40.628906 133.28125 C 40.632812 133.285156 40.636719 133.285156 40.640625 133.285156 M 40.621094 133.28125 C 40.617188 133.28125 40.609375 133.28125 40.601562 133.277344 C 40.609375 133.28125 40.617188 133.28125 40.621094 133.28125 M 40.597656 133.277344 C 40.59375 133.277344 40.589844 133.273438 40.585938 133.273438 C 40.589844 133.273438 40.59375 133.277344 40.597656 133.277344 M 40.578125 133.273438 C 40.574219 133.273438 40.570312 133.269531 40.5625 133.269531 C 40.570312 133.269531 40.574219 133.273438 40.578125 133.273438 M 40.5625 133.269531 C 37.675781 132.640625 35 131.0625 32.566406 128.871094 C 35 131.0625 37.675781 132.640625 40.5625 133.269531 M 32.566406 128.871094 C 32.5625 128.867188 32.558594 128.863281 32.550781 128.859375 C 32.554688 128.859375 32.5625 128.867188 32.566406 128.871094 M 32.546875 128.851562 C 32.542969 128.851562 32.539062 128.847656 32.539062 128.84375 C 32.539062 128.847656 32.542969 128.851562 32.546875 128.851562 M 32.53125 128.835938 C 32.523438 128.835938 32.519531 128.828125 32.515625 128.828125 C 32.519531 128.828125 32.523438 128.835938 32.53125 128.835938 M 32.511719 128.820312 C 32.507812 128.820312 32.503906 128.8125 32.5 128.8125 C 32.503906 128.816406 32.507812 128.820312 32.511719 128.820312 M 32.492188 128.804688 C 32.488281 128.800781 32.488281 128.800781 32.484375 128.796875 C 32.488281 128.800781 32.488281 128.800781 32.492188 128.804688 M 32.476562 128.789062 L 32.472656 128.789062 C 32.472656 128.789062 32.476562 128.789062 32.476562 128.789062 "/>
<path style=" stroke:none;fill-rule:nonzero;fill:rgb(64.709473%,66.268921%,67.449951%);fill-opacity:1;" d="M 43.300781 133.566406 C 43.664062 133.566406 44.027344 133.550781 44.398438 133.519531 C 44.027344 133.550781 43.664062 133.566406 43.300781 133.566406 C 39.175781 133.566406 35.421875 131.566406 32.125 128.464844 C 32.238281 128.574219 32.355469 128.679688 32.472656 128.789062 L 32.476562 128.789062 C 32.476562 128.792969 32.484375 128.796875 32.484375 128.796875 C 32.488281 128.800781 32.488281 128.800781 32.492188 128.804688 C 32.492188 128.804688 32.496094 128.808594 32.5 128.8125 C 32.503906 128.8125 32.507812 128.820312 32.511719 128.820312 C 32.515625 128.824219 32.515625 128.824219 32.515625 128.828125 C 32.519531 128.828125 32.523438 128.835938 32.53125 128.835938 C 32.53125 128.839844 32.535156 128.84375 32.539062 128.84375 C 32.539062 128.847656 32.542969 128.851562 32.546875 128.851562 C 32.546875 128.855469 32.550781 128.855469 32.550781 128.859375 C 32.558594 128.863281 32.5625 128.867188 32.566406 128.871094 C 35 131.0625 37.675781 132.640625 40.5625 133.269531 C 40.570312 133.269531 40.574219 133.273438 40.578125 133.273438 C 40.582031 133.273438 40.582031 133.273438 40.585938 133.273438 C 40.589844 133.273438 40.59375 133.277344 40.597656 133.277344 C 40.601562 133.277344 40.601562 133.277344 40.601562 133.277344 C 40.609375 133.28125 40.617188 133.28125 40.621094 133.28125 C 40.625 133.28125 40.625 133.28125 40.628906 133.28125 C 40.632812 133.285156 40.636719 133.285156 40.640625 133.285156 C 40.640625 133.285156 40.648438 133.289062 40.648438 133.289062 C 40.652344 133.289062 40.65625 133.289062 40.65625 133.289062 C 40.664062 133.289062 40.664062 133.289062 40.667969 133.289062 C 40.671875 133.292969 40.671875 133.292969 40.675781 133.292969 C 40.6875 133.296875 40.703125 133.296875 40.71875 133.300781 C 40.71875 133.300781 40.71875 133.304688 40.71875 133.304688 C 40.726562 133.304688 40.730469 133.304688 40.734375 133.304688 C 41.574219 133.476562 42.429688 133.566406 43.300781 133.566406 M 44.40625 133.519531 C 44.40625 133.515625 44.410156 133.515625 44.414062 133.515625 C 44.410156 133.515625 44.40625 133.515625 44.40625 133.519531 M 32.125 128.464844 C 32.121094 128.460938 32.117188 128.457031 32.113281 128.453125 C 32.117188 128.457031 32.121094 128.460938 32.125 128.464844 "/>
<path style=" stroke:none;fill-rule:nonzero;fill:rgb(75.289917%,58.428955%,30.589294%);fill-opacity:1;" d="M 63.722656 90.195312 C 63.621094 90.109375 57.175781 84.644531 39.445312 84.644531 C 39.109375 84.644531 38.773438 84.644531 38.429688 84.648438 C 38.773438 84.644531 39.109375 84.644531 39.445312 84.644531 C 48.542969 84.644531 54.675781 86.082031 58.496094 87.496094 C 58.503906 87.5 58.511719 87.503906 58.515625 87.503906 C 58.519531 87.503906 58.523438 87.507812 58.527344 87.507812 C 61.277344 88.527344 62.824219 89.53125 63.425781 89.96875 C 63.601562 90.09375 63.699219 90.171875 63.71875 90.1875 C 63.71875 90.191406 63.722656 90.191406 63.722656 90.191406 C 63.722656 90.191406 63.722656 90.191406 63.722656 90.195312 M 38.378906 84.648438 C 38.378906 84.648438 38.382812 84.648438 38.386719 84.648438 C 38.382812 84.648438 38.378906 84.648438 38.378906 84.648438 M 38.402344 84.648438 C 38.410156 84.648438 38.417969 84.648438 38.425781 84.648438 C 38.417969 84.648438 38.410156 84.648438 38.402344 84.648438 "/>
<path style=" stroke:none;fill-rule:nonzero;fill:rgb(64.709473%,66.268921%,67.449951%);fill-opacity:1;" d="M 32.066406 128.410156 C 31.53125 124.097656 35.21875 120.804688 40.042969 117.6875 C 39.160156 116.871094 38.644531 115.996094 38.703125 115.203125 C 38.871094 112.859375 46.632812 111.582031 50.386719 111.097656 C 50.710938 110.386719 51.144531 109.675781 51.683594 109 C 53.234375 107.054688 55.273438 105.902344 57.007812 105.800781 C 57.371094 105.351562 57.695312 104.890625 57.984375 104.417969 C 57.269531 104.46875 56.503906 104.496094 55.722656 104.496094 C 53.09375 104.496094 50.246094 104.199219 48.332031 103.53125 C 47.554688 104.746094 46.511719 105.902344 45.308594 107.015625 C 45.378906 107.246094 45.417969 107.386719 45.417969 107.386719 C 45.4375 108.257812 45.1875 108.609375 44.773438 108.609375 C 44.523438 108.609375 44.21875 108.480469 43.878906 108.265625 C 37.800781 113.304688 29.09375 117.691406 28.3125 123.796875 C 28.605469 124.316406 28.910156 124.828125 29.222656 125.320312 C 28.902344 124.925781 28.589844 124.523438 28.277344 124.113281 C 29.460938 125.6875 30.726562 127.140625 32.066406 128.410156 M 49.621094 97.09375 C 50.429688 96.292969 51.371094 95.414062 52.339844 94.597656 C 51.640625 92.765625 51.898438 90.457031 53.203125 88.492188 C 53.4375 88.136719 53.699219 87.808594 53.976562 87.507812 C 53.230469 86.832031 52.460938 86.21875 51.703125 85.675781 C 52.980469 85.910156 54.140625 86.175781 55.195312 86.457031 C 56.445312 86.789062 57.542969 87.144531 58.496094 87.496094 C 54.675781 86.082031 48.542969 84.644531 39.445312 84.644531 C 39.109375 84.644531 38.773438 84.644531 38.429688 84.648438 L 38.425781 84.648438 C 38.417969 84.648438 38.410156 84.648438 38.402344 84.648438 C 38.394531 84.648438 38.394531 84.648438 38.386719 84.648438 C 38.382812 84.648438 38.378906 84.648438 38.378906 84.648438 C 37.386719 84.660156 36.359375 84.691406 35.296875 84.738281 C 35.296875 84.738281 35.300781 84.738281 35.300781 84.738281 C 36.574219 84.683594 37.792969 84.652344 38.96875 84.644531 C 38.929688 85.132812 38.808594 85.640625 38.605469 86.152344 C 39.84375 86.742188 41.109375 87.417969 42.320312 88.175781 C 42.382812 88.183594 42.441406 88.183594 42.503906 88.191406 C 42.59375 87.714844 42.921875 87.1875 43.429688 86.777344 C 43.929688 86.371094 44.496094 86.160156 44.972656 86.160156 C 45.328125 86.160156 45.636719 86.277344 45.832031 86.515625 C 46.210938 86.988281 46.039062 87.789062 45.457031 88.453125 C 45.882812 88.515625 46.234375 88.617188 46.511719 88.742188 C 46.761719 88.292969 47.132812 87.847656 47.605469 87.464844 C 48.378906 86.839844 49.253906 86.511719 49.996094 86.511719 C 50.546875 86.511719 51.023438 86.691406 51.324219 87.0625 C 52.027344 87.9375 51.507812 89.53125 50.160156 90.625 C 49.386719 91.253906 48.511719 91.578125 47.769531 91.578125 C 47.4375 91.578125 47.132812 91.515625 46.875 91.382812 C 46.8125 91.476562 46.746094 91.574219 46.671875 91.671875 C 46.957031 91.976562 47.226562 92.289062 47.476562 92.609375 C 47.796875 92.457031 48.121094 92.378906 48.410156 92.378906 C 48.765625 92.378906 49.074219 92.496094 49.269531 92.734375 C 49.664062 93.226562 49.460938 94.066406 48.828125 94.742188 C 49.191406 95.488281 49.460938 96.269531 49.621094 97.09375 M 63.722656 90.195312 C 63.722656 90.191406 63.722656 90.191406 63.722656 90.191406 C 63.722656 90.191406 63.722656 90.191406 63.722656 90.195312 M 63.722656 90.191406 C 63.722656 90.191406 63.71875 90.191406 63.71875 90.1875 C 63.71875 90.191406 63.722656 90.191406 63.722656 90.191406 M 63.71875 90.1875 C 63.699219 90.171875 63.601562 90.09375 63.425781 89.96875 C 63.453125 89.984375 63.476562 90 63.496094 90.015625 C 63.628906 90.113281 63.699219 90.175781 63.71875 90.1875 M 58.527344 87.507812 L 58.527344 87.507812 M 58.515625 87.503906 C 58.511719 87.503906 58.503906 87.5 58.496094 87.496094 C 58.503906 87.5 58.511719 87.503906 58.515625 87.503906 "/>
<path style=" stroke:none;fill-rule:nonzero;fill:rgb(71.759033%,72.938538%,75.289917%);fill-opacity:1;" d="M 29.222656 125.320312 C 28.910156 124.828125 28.605469 124.316406 28.3125 123.796875 C 28.300781 123.902344 28.289062 124.007812 28.277344 124.113281 C 28.589844 124.523438 28.902344 124.925781 29.222656 125.320312 "/>
<path style=" stroke:none;fill-rule:nonzero;fill:rgb(49.409485%,54.508972%,58.81958%);fill-opacity:1;" d="M 46.671875 91.671875 C 46.746094 91.574219 46.8125 91.476562 46.875 91.382812 C 46.707031 91.292969 46.558594 91.175781 46.441406 91.027344 C 45.980469 90.457031 46.039062 89.585938 46.511719 88.742188 C 46.234375 88.617188 45.882812 88.515625 45.457031 88.453125 C 45.34375 88.578125 45.21875 88.699219 45.078125 88.8125 C 44.75 89.082031 44.390625 89.265625 44.046875 89.355469 C 45 90.066406 45.890625 90.835938 46.671875 91.671875 M 42.488281 88.285156 C 42.492188 88.253906 42.496094 88.222656 42.503906 88.191406 C 42.441406 88.183594 42.382812 88.183594 42.320312 88.175781 C 42.375 88.214844 42.429688 88.246094 42.488281 88.285156 "/>
<path style=" stroke:none;fill-rule:nonzero;fill:rgb(49.409485%,54.508972%,58.81958%);fill-opacity:1;" d="M 40.042969 117.6875 C 43.234375 115.628906 46.921875 113.648438 50.214844 111.503906 C 50.269531 111.367188 50.328125 111.234375 50.386719 111.097656 C 46.632812 111.582031 38.871094 112.859375 38.703125 115.203125 C 38.644531 115.996094 39.160156 116.871094 40.042969 117.6875 "/>
<path style=" stroke:none;fill-rule:nonzero;fill:rgb(49.409485%,54.508972%,58.81958%);fill-opacity:1;" d="M 55.722656 104.496094 C 56.503906 104.496094 57.269531 104.46875 57.984375 104.417969 C 58.574219 103.4375 58.996094 102.410156 59.207031 101.316406 C 59.492188 99.851562 59.539062 98.476562 59.394531 97.1875 C 58.589844 97.558594 57.734375 97.757812 56.902344 97.757812 C 55.945312 97.757812 55.011719 97.5 54.195312 96.957031 C 53.324219 96.378906 52.703125 95.550781 52.339844 94.597656 C 51.371094 95.414062 50.429688 96.292969 49.621094 97.09375 C 49.777344 97.910156 49.820312 98.769531 49.738281 99.664062 C 49.609375 101.03125 49.101562 102.3125 48.332031 103.53125 C 50.246094 104.199219 53.09375 104.496094 55.722656 104.496094 "/>
<path style=" stroke:none;fill-rule:nonzero;fill:rgb(49.409485%,54.508972%,58.81958%);fill-opacity:1;" d="M 44.773438 108.609375 C 45.1875 108.609375 45.4375 108.257812 45.417969 107.386719 C 45.417969 107.386719 45.378906 107.246094 45.308594 107.015625 C 44.851562 107.4375 44.375 107.855469 43.878906 108.265625 C 44.21875 108.480469 44.523438 108.609375 44.773438 108.609375 "/>
<path style=" stroke:none;fill-rule:nonzero;fill:rgb(58.428955%,61.178589%,63.919067%);fill-opacity:1;" d="M 47.769531 91.578125 C 48.511719 91.578125 49.386719 91.253906 50.160156 90.625 C 51.507812 89.53125 52.027344 87.9375 51.324219 87.0625 C 51.023438 86.691406 50.546875 86.511719 49.996094 86.511719 C 49.253906 86.511719 48.378906 86.839844 47.605469 87.464844 C 47.132812 87.847656 46.761719 88.292969 46.511719 88.742188 C 47.652344 89.261719 47.613281 90.242188 46.875 91.382812 C 47.132812 91.515625 47.4375 91.578125 47.769531 91.578125 "/>
<path style=" stroke:none;fill-rule:nonzero;fill:rgb(49.409485%,54.508972%,58.81958%);fill-opacity:1;" d="M 46.875 91.382812 C 47.613281 90.242188 47.652344 89.261719 46.511719 88.742188 C 46.039062 89.585938 45.980469 90.457031 46.441406 91.027344 C 46.558594 91.175781 46.707031 91.292969 46.875 91.382812 "/>
<path style=" stroke:none;fill-rule:nonzero;fill:rgb(58.428955%,61.178589%,63.919067%);fill-opacity:1;" d="M 48.828125 94.742188 C 49.460938 94.066406 49.664062 93.226562 49.269531 92.734375 C 49.074219 92.496094 48.765625 92.378906 48.410156 92.378906 C 48.121094 92.378906 47.796875 92.457031 47.476562 92.609375 C 48.007812 93.28125 48.464844 93.996094 48.828125 94.742188 "/>
<path style=" stroke:none;fill-rule:nonzero;fill:rgb(65.098572%,56.858826%,42.349243%);fill-opacity:1;" d="M 63.425781 89.96875 C 62.824219 89.53125 61.277344 88.527344 58.527344 87.507812 C 61.273438 88.527344 62.824219 89.527344 63.425781 89.96875 M 58.527344 87.507812 C 58.523438 87.507812 58.519531 87.503906 58.515625 87.503906 C 58.519531 87.503906 58.523438 87.507812 58.527344 87.507812 M 58.496094 87.496094 L 58.496094 87.496094 "/>
<path style=" stroke:none;fill-rule:nonzero;fill:rgb(58.428955%,61.178589%,63.919067%);fill-opacity:1;" d="M 52.339844 94.597656 C 54.1875 93.035156 56.132812 91.710938 57.464844 91.648438 C 56.5 90.0625 55.273438 88.683594 53.976562 87.507812 C 53.699219 87.808594 53.4375 88.136719 53.203125 88.492188 C 51.898438 90.457031 51.640625 92.765625 52.339844 94.597656 M 63.496094 90.015625 C 63.476562 90 63.453125 89.984375 63.425781 89.96875 C 62.824219 89.527344 61.273438 88.527344 58.527344 87.507812 C 58.523438 87.507812 58.519531 87.503906 58.515625 87.503906 C 58.511719 87.503906 58.503906 87.5 58.496094 87.496094 C 57.542969 87.144531 56.445312 86.789062 55.195312 86.457031 C 60.222656 87.796875 62.765625 89.476562 63.496094 90.015625 "/>
<path style=" stroke:none;fill-rule:nonzero;fill:rgb(49.409485%,54.508972%,58.81958%);fill-opacity:1;" d="M 56.902344 97.757812 C 57.734375 97.757812 58.589844 97.558594 59.394531 97.1875 C 59.167969 95.121094 58.453125 93.277344 57.464844 91.648438 C 56.132812 91.710938 54.1875 93.035156 52.339844 94.597656 C 52.703125 95.550781 53.324219 96.378906 54.195312 96.957031 C 55.011719 97.5 55.945312 97.757812 56.902344 97.757812 "/>
<path style=" stroke:none;fill-rule:nonzero;fill:rgb(58.428955%,61.178589%,63.919067%);fill-opacity:1;" d="M 45.457031 88.453125 C 46.039062 87.789062 46.210938 86.988281 45.832031 86.515625 C 45.636719 86.277344 45.328125 86.160156 44.972656 86.160156 C 44.496094 86.160156 43.929688 86.371094 43.429688 86.777344 C 42.921875 87.1875 42.59375 87.714844 42.503906 88.191406 C 43.878906 88.292969 44.761719 88.375 44.761719 88.375 C 45.011719 88.390625 45.246094 88.417969 45.457031 88.453125 "/>
<path style=" stroke:none;fill-rule:nonzero;fill:rgb(49.409485%,54.508972%,58.81958%);fill-opacity:1;" d="M 44.046875 89.355469 C 44.390625 89.265625 44.75 89.082031 45.078125 88.8125 C 45.21875 88.699219 45.34375 88.578125 45.457031 88.453125 C 45.246094 88.417969 45.011719 88.390625 44.761719 88.375 C 44.761719 88.375 43.878906 88.292969 42.503906 88.191406 C 42.496094 88.222656 42.492188 88.253906 42.488281 88.285156 C 43.019531 88.625 43.542969 88.980469 44.046875 89.355469 "/>
<path style=" stroke:none;fill-rule:nonzero;fill:rgb(58.428955%,61.178589%,63.919067%);fill-opacity:1;" d="M 38.605469 86.152344 C 38.808594 85.640625 38.929688 85.132812 38.96875 84.644531 C 37.792969 84.652344 36.574219 84.683594 35.300781 84.738281 C 36.339844 85.140625 37.464844 85.609375 38.605469 86.152344 "/>
<path style=" stroke:none;fill-rule:nonzero;fill:rgb(58.428955%,61.178589%,63.919067%);fill-opacity:1;" d="M 50.386719 111.097656 C 50.585938 111.070312 50.765625 111.050781 50.9375 111.027344 C 53.335938 109.417969 55.484375 107.710938 57.007812 105.800781 C 55.273438 105.902344 53.234375 107.054688 51.683594 109 C 51.144531 109.675781 50.710938 110.386719 50.386719 111.097656 "/>
<path style=" stroke:none;fill-rule:nonzero;fill:rgb(49.409485%,54.508972%,58.81958%);fill-opacity:1;" d="M 50.214844 111.503906 C 50.457031 111.34375 50.699219 111.1875 50.9375 111.027344 C 50.765625 111.050781 50.585938 111.070312 50.386719 111.097656 C 50.328125 111.234375 50.269531 111.367188 50.214844 111.503906 "/>
<path style=" stroke:none;fill-rule:nonzero;fill:rgb(64.709473%,66.268921%,67.449951%);fill-opacity:1;" d="M 44.414062 133.515625 C 45.265625 133.441406 46.136719 133.28125 47.023438 133.027344 C 46.136719 133.28125 45.265625 133.441406 44.414062 133.515625 M 32.125 128.464844 L 32.125 128.464844 M 32.113281 128.453125 C 32.097656 128.4375 32.082031 128.425781 32.066406 128.410156 C 32.082031 128.425781 32.097656 128.4375 32.113281 128.453125 "/>
<path style=" stroke:none;fill-rule:nonzero;fill:rgb(55.288696%,57.649231%,59.999084%);fill-opacity:1;" d="M 43.300781 133.566406 C 43.664062 133.566406 44.027344 133.550781 44.398438 133.519531 C 44.402344 133.519531 44.402344 133.519531 44.40625 133.519531 C 44.40625 133.515625 44.410156 133.515625 44.414062 133.515625 C 45.265625 133.441406 46.136719 133.28125 47.023438 133.027344 C 58.875 129.617188 70.085938 115.71875 70.085938 103.507812 C 70.085938 98.507812 68.207031 93.789062 63.722656 90.195312 C 63.722656 90.191406 63.722656 90.191406 63.722656 90.191406 C 63.722656 90.191406 63.71875 90.191406 63.71875 90.1875 C 63.699219 90.175781 63.628906 90.113281 63.496094 90.015625 C 63.53125 90.046875 63.566406 90.070312 63.59375 90.09375 C 63.714844 91.5625 63.320312 93.164062 62.375 94.589844 C 62.074219 95.046875 61.726562 95.460938 61.359375 95.824219 C 62.601562 98.757812 63.144531 102.339844 62.160156 103.421875 C 61.703125 103.921875 60.058594 104.269531 57.984375 104.417969 C 57.695312 104.890625 57.371094 105.351562 57.007812 105.800781 C 57.09375 105.796875 57.175781 105.792969 57.257812 105.792969 C 58.023438 105.792969 58.71875 106.007812 59.277344 106.457031 C 61.152344 107.957031 60.792969 111.527344 58.476562 114.429688 C 57.316406 115.882812 55.886719 116.894531 54.507812 117.351562 C 53.910156 118.316406 53.027344 119.207031 51.847656 119.863281 C 50.742188 120.480469 49.460938 120.742188 48.144531 120.742188 C 45.085938 120.742188 41.816406 119.335938 40.042969 117.6875 C 35.21875 120.804688 31.53125 124.097656 32.066406 128.410156 C 32.082031 128.425781 32.097656 128.4375 32.113281 128.453125 C 32.117188 128.457031 32.121094 128.460938 32.125 128.464844 C 35.421875 131.566406 39.175781 133.566406 43.300781 133.566406 M 63.289062 112.0625 C 63.539062 112.0625 63.777344 112.117188 63.992188 112.242188 C 64.964844 112.796875 65.0625 114.472656 64.207031 115.980469 C 63.535156 117.160156 62.484375 117.890625 61.589844 117.890625 C 61.339844 117.890625 61.101562 117.832031 60.886719 117.707031 C 59.910156 117.15625 59.816406 115.480469 60.671875 113.972656 C 61.34375 112.792969 62.398438 112.0625 63.289062 112.0625 M 65.398438 103.859375 C 65.707031 103.859375 66 103.929688 66.257812 104.078125 C 67.449219 104.757812 67.566406 106.804688 66.519531 108.644531 C 65.699219 110.085938 64.414062 110.980469 63.324219 110.980469 C 63.019531 110.980469 62.726562 110.910156 62.464844 110.757812 C 61.273438 110.082031 61.15625 108.035156 62.207031 106.191406 C 63.023438 104.75 64.308594 103.859375 65.398438 103.859375 M 53.976562 87.507812 C 54.351562 87.101562 54.761719 86.753906 55.195312 86.457031 C 54.140625 86.175781 52.980469 85.910156 51.703125 85.675781 C 52.460938 86.21875 53.230469 86.832031 53.976562 87.507812 "/>
<path style=" stroke:none;fill-rule:nonzero;fill:rgb(42.749023%,48.629761%,52.938843%);fill-opacity:1;" d="M 48.144531 120.742188 C 49.460938 120.742188 50.742188 120.480469 51.847656 119.863281 C 53.027344 119.207031 53.910156 118.316406 54.507812 117.351562 C 53.957031 117.535156 53.414062 117.632812 52.902344 117.632812 C 52.136719 117.632812 51.445312 117.421875 50.882812 116.972656 C 49.523438 115.886719 49.339844 113.722656 50.214844 111.503906 C 46.921875 113.648438 43.234375 115.628906 40.042969 117.6875 C 41.816406 119.335938 45.085938 120.742188 48.144531 120.742188 "/>
<path style=" stroke:none;fill-rule:nonzero;fill:rgb(42.749023%,48.629761%,52.938843%);fill-opacity:1;" d="M 57.984375 104.417969 C 60.058594 104.269531 61.703125 103.921875 62.160156 103.421875 C 63.144531 102.339844 62.601562 98.757812 61.359375 95.824219 C 60.765625 96.402344 60.097656 96.859375 59.394531 97.1875 C 59.539062 98.476562 59.492188 99.851562 59.207031 101.316406 C 58.996094 102.410156 58.574219 103.4375 57.984375 104.417969 "/>
<path style=" stroke:none;fill-rule:nonzero;fill:rgb(49.798584%,54.119873%,56.858826%);fill-opacity:1;" d="M 63.324219 110.980469 C 64.414062 110.980469 65.699219 110.085938 66.519531 108.644531 C 67.566406 106.804688 67.449219 104.757812 66.257812 104.078125 C 66 103.929688 65.707031 103.859375 65.398438 103.859375 C 64.308594 103.859375 63.023438 104.75 62.207031 106.191406 C 61.15625 108.035156 61.273438 110.082031 62.464844 110.757812 C 62.726562 110.910156 63.019531 110.980469 63.324219 110.980469 "/>
<path style=" stroke:none;fill-rule:nonzero;fill:rgb(49.798584%,54.119873%,56.858826%);fill-opacity:1;" d="M 61.589844 117.890625 C 62.484375 117.890625 63.535156 117.160156 64.207031 115.980469 C 65.0625 114.472656 64.964844 112.796875 63.992188 112.242188 C 63.777344 112.117188 63.539062 112.0625 63.289062 112.0625 C 62.398438 112.0625 61.34375 112.792969 60.671875 113.972656 C 59.816406 115.480469 59.910156 117.15625 60.886719 117.707031 C 61.101562 117.832031 61.339844 117.890625 61.589844 117.890625 "/>
<path style=" stroke:none;fill-rule:nonzero;fill:rgb(49.798584%,54.119873%,56.858826%);fill-opacity:1;" d="M 61.359375 95.824219 C 61.726562 95.460938 62.074219 95.046875 62.375 94.589844 C 63.320312 93.164062 63.714844 91.5625 63.59375 90.09375 C 63.566406 90.070312 63.53125 90.046875 63.496094 90.015625 C 62.765625 89.476562 60.222656 87.796875 55.195312 86.457031 C 54.761719 86.753906 54.351562 87.101562 53.976562 87.507812 C 55.273438 88.683594 56.5 90.0625 57.464844 91.648438 C 57.496094 91.648438 57.527344 91.644531 57.558594 91.644531 C 57.597656 91.644531 57.636719 91.648438 57.675781 91.648438 C 59.0625 91.734375 60.410156 93.59375 61.359375 95.824219 "/>
<path style=" stroke:none;fill-rule:nonzero;fill:rgb(42.749023%,48.629761%,52.938843%);fill-opacity:1;" d="M 59.394531 97.1875 C 60.097656 96.859375 60.765625 96.402344 61.359375 95.824219 C 60.410156 93.59375 59.0625 91.734375 57.675781 91.648438 C 57.636719 91.648438 57.597656 91.644531 57.558594 91.644531 C 57.527344 91.644531 57.496094 91.648438 57.464844 91.648438 C 58.453125 93.277344 59.167969 95.121094 59.394531 97.1875 "/>
<path style=" stroke:none;fill-rule:nonzero;fill:rgb(49.798584%,54.119873%,56.858826%);fill-opacity:1;" d="M 54.507812 117.351562 C 55.886719 116.894531 57.316406 115.882812 58.476562 114.429688 C 60.792969 111.527344 61.152344 107.957031 59.277344 106.457031 C 58.71875 106.007812 58.023438 105.792969 57.257812 105.792969 C 57.175781 105.792969 57.09375 105.796875 57.007812 105.800781 C 55.484375 107.710938 53.335938 109.417969 50.9375 111.027344 C 51.828125 110.917969 52.386719 110.871094 52.386719 110.871094 C 52.539062 110.847656 52.6875 110.839844 52.832031 110.839844 C 55.585938 110.839844 56.328125 114.4375 54.507812 117.351562 "/>
<path style=" stroke:none;fill-rule:nonzero;fill:rgb(42.749023%,48.629761%,52.938843%);fill-opacity:1;" d="M 52.902344 117.632812 C 53.414062 117.632812 53.957031 117.535156 54.507812 117.351562 C 56.328125 114.4375 55.585938 110.839844 52.832031 110.839844 C 52.6875 110.839844 52.539062 110.847656 52.386719 110.871094 C 52.386719 110.871094 51.828125 110.917969 50.9375 111.027344 C 50.699219 111.1875 50.457031 111.34375 50.214844 111.503906 C 49.339844 113.722656 49.523438 115.886719 50.882812 116.972656 C 51.445312 117.421875 52.136719 117.632812 52.902344 117.632812 "/>
<path style=" stroke:none;fill-rule:nonzero;fill:rgb(89.408875%,67.83905%,31.759644%);fill-opacity:1;" d="M 102.273438 74.898438 C 102.710938 74.957031 102.902344 75.089844 102.902344 75.089844 C 102.710938 75.023438 102.5 74.960938 102.273438 74.898438 "/>
</g>
</svg>
