<?xml version="1.0" encoding="UTF-8"?>
<svg xmlns="http://www.w3.org/2000/svg" xmlns:xlink="http://www.w3.org/1999/xlink" width="224.87999pt" height="225pt" viewBox="0 0 224.87999 225" version="1.2">
<defs>
<clipPath id="clip1">
  <path d="M 0 0.0585938 L 224.761719 0.0585938 L 224.761719 224.9375 L 0 224.9375 Z M 0 0.0585938 "/>
</clipPath>
<clipPath id="clip2">
  <path d="M 39.808594 40.039062 L 185.648438 40.039062 L 185.648438 184.914062 L 39.808594 184.914062 Z M 39.808594 40.039062 "/>
</clipPath>
<clipPath id="clip3">
  <path d="M 83.617188 121 L 185 121 L 185 184.914062 L 83.617188 184.914062 Z M 83.617188 121 "/>
</clipPath>
<clipPath id="clip4">
  <path d="M 90.535156 151.007812 L 153.945312 151.007812 L 153.945312 184.914062 L 90.535156 184.914062 Z M 90.535156 151.007812 "/>
</clipPath>
<clipPath id="clip5">
  <path d="M 0.0351562 53 L 224.761719 53 L 224.761719 172 L 0.0351562 172 Z M 0.0351562 53 "/>
</clipPath>
</defs>
<g id="surface1">
<g clip-path="url(#clip1)" clip-rule="nonzero">
<path style=" stroke:none;fill-rule:nonzero;fill:rgb(100%,100%,100%);fill-opacity:1;" d="M 0 0.0585938 L 224.878906 0.0585938 L 224.878906 224.941406 L 0 224.941406 Z M 0 0.0585938 "/>
<path style=" stroke:none;fill-rule:nonzero;fill:rgb(100%,100%,100%);fill-opacity:1;" d="M 0 0.0585938 L 224.878906 0.0585938 L 224.878906 224.941406 L 0 224.941406 Z M 0 0.0585938 "/>
</g>
<g clip-path="url(#clip2)" clip-rule="nonzero">
<path style=" stroke:none;fill-rule:nonzero;fill:rgb(94.898987%,72.938538%,46.669006%);fill-opacity:1;" d="M 184.710938 105.257812 C 188.707031 145.058594 159.597656 180.558594 119.691406 184.546875 C 79.785156 188.535156 44.191406 159.5 40.195312 119.695312 C 36.199219 79.890625 65.308594 44.394531 105.214844 40.40625 C 145.121094 36.417969 180.710938 65.453125 184.710938 105.257812 "/>
</g>
<path style=" stroke:none;fill-rule:nonzero;fill:rgb(93.328857%,67.83905%,37.649536%);fill-opacity:1;" d="M 84.9375 108.574219 C 84.9375 108.574219 127.140625 105.882812 166.351562 63.933594 C 160.679688 57.675781 153.941406 52.4375 146.460938 48.476562 C 138.191406 65.488281 120.804688 86.878906 84.9375 108.574219 "/>
<g clip-path="url(#clip3)" clip-rule="nonzero">
<path style=" stroke:none;fill-rule:nonzero;fill:rgb(90.19928%,67.059326%,38.038635%);fill-opacity:1;" d="M 184.566406 121.089844 C 149.613281 153.644531 109.652344 170.6875 83.78125 179.03125 C 86.011719 179.992188 88.296875 180.839844 90.628906 181.578125 C 106.59375 177.855469 133.816406 169.238281 153.699219 151.011719 C 153.699219 151.011719 145.222656 171.085938 114.007812 184.894531 C 115.890625 184.851562 117.785156 184.738281 119.691406 184.546875 C 125.195312 184 130.496094 182.847656 135.53125 181.167969 C 142.007812 177.40625 148.320312 172.96875 154.027344 167.738281 C 154.027344 167.738281 152.882812 170.445312 149.890625 174.554688 C 168.824219 163.175781 181.894531 143.511719 184.566406 121.089844 "/>
</g>
<path style=" stroke:none;fill-rule:nonzero;fill:rgb(98.81897%,87.838745%,74.119568%);fill-opacity:1;" d="M 105.214844 40.40625 C 73.574219 43.566406 48.722656 66.542969 41.777344 95.761719 C 66.726562 82.328125 100.160156 62.671875 126.167969 41.335938 C 119.429688 40.042969 112.394531 39.6875 105.214844 40.40625 "/>
<path style=" stroke:none;fill-rule:nonzero;fill:rgb(93.328857%,67.83905%,37.649536%);fill-opacity:1;" d="M 131.628906 108.144531 C 113.796875 125.84375 77.09375 140.460938 50.007812 149.46875 C 51.59375 152.132812 53.34375 154.679688 55.242188 157.097656 C 111.929688 135.847656 131.628906 108.144531 131.628906 108.144531 "/>
<path style=" stroke:none;fill-rule:nonzero;fill:rgb(98.039246%,74.899292%,45.878601%);fill-opacity:1;" d="M 180.8125 87.996094 C 160.882812 110.820312 119.007812 150.996094 61.835938 164.410156 C 66.074219 168.511719 70.796875 172.09375 75.902344 175.066406 C 78.4375 176.542969 81.070312 177.867188 83.78125 179.03125 C 109.652344 170.6875 149.613281 153.644531 184.566406 121.089844 C 184.886719 118.402344 185.058594 115.671875 185.070312 112.914062 C 185.085938 110.382812 184.964844 107.828125 184.710938 105.257812 C 184.105469 99.230469 182.769531 93.453125 180.8125 87.996094 "/>
<g clip-path="url(#clip4)" clip-rule="nonzero">
<path style=" stroke:none;fill-rule:nonzero;fill:rgb(98.039246%,74.899292%,45.878601%);fill-opacity:1;" d="M 153.699219 151.011719 C 133.816406 169.238281 106.59375 177.855469 90.628906 181.578125 C 98.027344 183.902344 105.898438 185.078125 114.007812 184.894531 C 145.222656 171.085938 153.699219 151.011719 153.699219 151.011719 "/>
</g>
<path style=" stroke:none;fill-rule:nonzero;fill:rgb(94.898987%,72.938538%,46.669006%);fill-opacity:1;" d="M 135.53125 181.167969 C 140.605469 179.476562 145.414062 177.246094 149.890625 174.554688 C 152.882812 170.445312 154.027344 167.738281 154.027344 167.738281 C 148.320312 172.96875 142.007812 177.40625 135.53125 181.167969 "/>
<path style=" stroke:none;fill-rule:nonzero;fill:rgb(93.328857%,67.83905%,37.649536%);fill-opacity:1;" d="M 153.726562 85.90625 C 153.726562 85.90625 164.5 82.714844 174.535156 74.875 C 173.40625 73.023438 172.195312 71.230469 170.910156 69.496094 C 166.039062 75.121094 160.171875 81.074219 153.726562 85.90625 "/>
<g clip-path="url(#clip5)" clip-rule="nonzero">
<path style=" stroke:none;fill-rule:nonzero;fill:rgb(74.508667%,48.239136%,22.349548%);fill-opacity:1;" d="M 224.390625 56.789062 C 220.828125 49.671875 198.15625 53.113281 166.582031 64.191406 C 168.390625 66.207031 170.089844 68.320312 171.667969 70.535156 C 185.378906 67.082031 194.582031 66.859375 196.484375 70.671875 C 198.390625 74.480469 192.679688 81.675781 181.667969 90.523438 C 167.933594 101.554688 145.957031 115.15625 120.203125 127.972656 C 94.445312 140.785156 70.332031 150.113281 53.234375 154.417969 C 39.523438 157.867188 30.324219 158.089844 28.417969 154.285156 C 26.515625 150.476562 32.226562 143.28125 43.238281 134.429688 C 42.425781 131.871094 41.75 129.242188 41.21875 126.554688 C 13.351562 145.054688 -3.042969 161.046875 0.515625 168.164062 C 4.074219 175.28125 26.746094 171.839844 58.324219 160.765625 C 77.328125 154.097656 99.546875 144.671875 122.777344 133.117188 C 146 121.5625 166.917969 109.527344 183.6875 98.394531 C 211.550781 79.898438 227.949219 63.90625 224.390625 56.789062 "/>
</g>
</g>
</svg>
